#!OML:ASF X:\für Bonn\!DataBase\2005_08_11_Bastian_Final\c3d\Bastian.ASF
:FULLY-SPECIFIED
:DEGREES
128
root -22.3565 17.6571 -0.440797 35.8827 -81.166 -44.6094
lowerback 8.90955 5.08948 7.13814
upperback 5.63562 7.05229 -4.96995
thorax 2.5065 3.81537 -9.68225
lowerneck -8.55968 -12.0778 -1.31362
upperneck -10.2423 -15.8815 12.8619
head -0.603264 -8.21713 3.90977
rclavicle -6.04305e-014 2.70347e-014
rhumerus 55.8631 -0.391302 -14.3021
rradius 20.3741
rwrist -21.0688
rhand 7.31876 -12.5912
rfingers 7.12502
rthumb 32.5791 -39.6793
lclavicle -6.04305e-014 2.70347e-014
lhumerus -24.7566 -15.0065 82.4396
lradius 16.4013
lwrist 15.5714
lhand -10.2575 -3.63676
lfingers 7.12502
lthumb 15.7357 25.7435
rfemur 0.368893 0.728033 26.0154
rtibia 27.5837
rfoot -10.7831 -17.8156
rtoes -6.15166
lfemur 1.22116 2.29673 -12.9046
ltibia 22.6129
lfoot -8.3197 -7.54142
ltoes -19.9428
129
root -22.3543 17.657 -0.435764 35.9799 -81.1849 -44.7236
lowerback 8.91294 5.10314 7.19886
upperback 5.6265 7.07574 -4.97892
thorax 2.51019 3.82985 -9.72815
lowerneck -8.60259 -11.9985 -1.28333
upperneck -9.87561 -15.799 12.8576
head -0.484344 -8.15813 3.88612
rclavicle 6.24184e-014 -9.54166e-015
rhumerus 55.8599 -0.448761 -14.5078
rradius 20.3764
rwrist -21.4631
rhand 7.07032 -12.7786
rfingers 7.12502
rthumb 32.3426 -39.9152
lclavicle 6.24184e-014 -9.54166e-015
lhumerus -24.6909 -14.8969 82.4151
lradius 16.3775
lwrist 15.3719
lhand -10.205 -3.56649
lfingers 7.12502
lthumb 15.7862 25.8098
rfemur 0.378046 0.766769 26.0012
rtibia 27.5893
rfoot -10.7822 -17.8182
rtoes -6.15482
lfemur 1.24523 2.27645 -12.9264
ltibia 22.6073
lfoot -8.3138 -7.50253
ltoes -19.7935
130
root -22.3525 17.6576 -0.431197 36.0147 -81.22 -44.7654
lowerback 8.89641 5.11441 7.21464
upperback 5.61512 7.09203 -4.97598
thorax 2.51254 3.83859 -9.73305
lowerneck -8.60979 -11.9117 -1.30968
upperneck -9.49102 -15.7027 12.8888
head -0.358405 -8.09065 3.88635
rclavicle 1.62606e-013 -4.77083e-014
rhumerus 55.885 -0.446327 -14.5954
rradius 20.398
rwrist -21.9455
rhand 6.75639 -13.017
rfingers 7.12502
rthumb 32.0438 -40.2142
lclavicle 1.62606e-013 -4.77083e-014
lhumerus -24.6601 -14.822 82.4325
lradius 16.3653
lwrist 15.2474
lhand -10.1871 -3.51707
lfingers 7.12502
lthumb 15.8035 25.8579
rfemur 0.376229 0.748781 25.9567
rtibia 27.5951
rfoot -10.7466 -17.7707
rtoes -6.20771
lfemur 1.25825 2.30953 -12.9625
ltibia 22.6023
lfoot -8.31253 -7.49585
ltoes -19.7918
131
root -22.3504 17.6565 -0.426024 36.1972 -81.2444 -44.9713
lowerback 8.87952 5.1186 7.26721
upperback 5.61825 7.10104 -4.97445
thorax 2.53453 3.84639 -9.75961
lowerneck -8.68137 -11.8137 -1.27589
upperneck -9.0483 -15.6029 12.8966
head -0.210425 -8.01871 3.86294
rclavicle -9.93923e-015 4.77083e-015
rhumerus 55.94 -0.443571 -14.6795
rradius 20.3873
rwrist -22.3487
rhand 6.33777 -13.1793
rfingers 7.12502
rthumb 31.6451 -40.4558
lclavicle -9.93923e-015 4.77083e-015
lhumerus -24.5197 -14.5966 82.377
lradius 16.2269
lwrist 14.9305
lhand -10.1672 -3.51643
lfingers 7.12502
lthumb 15.8226 25.857
rfemur 0.389186 0.749258 25.9389
rtibia 27.6028
rfoot -10.7128 -17.7242
rtoes -6.3319
lfemur 1.28998 2.32133 -12.9755
ltibia 22.5945
lfoot -8.31372 -7.46471
ltoes -19.7856
132
root -22.349 17.6564 -0.420901 36.3598 -81.2659 -45.1438
lowerback 8.847 5.11647 7.31251
upperback 5.61358 7.10085 -4.97061
thorax 2.55324 3.84893 -9.77805
lowerneck -8.72528 -11.7168 -1.27105
upperneck -8.58901 -15.5038 12.9079
head -0.0588782 -7.9458 3.8475
rclavicle 1.63003e-014 7.15625e-014
rhumerus 55.9976 -0.441423 -14.8044
rradius 20.4039
rwrist -22.6936
rhand 5.79803 -13.3104
rfingers 7.12502
rthumb 31.1308 -40.6868
lclavicle 1.63003e-014 7.15625e-014
lhumerus -24.4042 -14.4062 82.3519
lradius 16.0852
lwrist 14.6961
lhand -10.1754 -3.55373
lfingers 7.12502
lthumb 15.8148 25.8203
rfemur 0.393118 0.749523 25.9195
rtibia 27.6123
rfoot -10.7171 -17.6831
rtoes -6.33023
lfemur 1.30844 2.32826 -12.9924
ltibia 22.5838
lfoot -8.3135 -7.43094
ltoes -19.7939
133
root -22.347 17.6567 -0.415613 36.457 -81.3051 -45.2574
lowerback 8.81838 5.11575 7.31383
upperback 5.60558 7.09978 -4.94178
thorax 2.55592 3.8478 -9.74448
lowerneck -8.73902 -11.6152 -1.33285
upperneck -8.08531 -15.396 12.9256
head 0.107793 -7.86488 3.84666
rclavicle -2.3059e-014 9.54166e-015
rhumerus 56.0786 -0.385759 -14.8572
rradius 20.4186
rwrist -23.0031
rhand 5.20521 -13.3908
rfingers 7.12502
rthumb 30.5657 -40.8741
lclavicle -2.3059e-014 9.54166e-015
lhumerus -24.2877 -14.1757 82.3621
lradius 15.9087
lwrist 14.4296
lhand -10.164 -3.6082
lfingers 7.12502
lthumb 15.8257 25.765
rfemur 0.401114 0.774736 25.8887
rtibia 27.6179
rfoot -10.6941 -17.6704
rtoes -6.43011
lfemur 1.33501 2.3884 -13.0181
ltibia 22.5791
lfoot -8.31432 -7.44388
ltoes -19.7807
134
root -22.3453 17.6564 -0.410139 36.5104 -81.3495 -45.3403
lowerback 8.79453 5.11198 7.33706
upperback 5.60725 7.09555 -4.94668
thorax 2.57391 3.8477 -9.76037
lowerneck -8.82959 -11.5086 -1.27907
upperneck -7.48647 -15.3013 12.8808
head 0.303618 -7.78666 3.79778
rclavicle -1.66979e-014 4.29375e-014
rhumerus 56.1372 -0.357544 -14.9572
rradius 20.4504
rwrist -23.3079
rhand 4.5889 -13.4765
rfingers 7.12502
rthumb 29.9778 -41.0677
lclavicle -1.66979e-014 4.29375e-014
lhumerus -24.1662 -14.0075 82.3328
lradius 15.7615
lwrist 14.1805
lhand -10.1719 -3.67964
lfingers 7.12502
lthumb 15.8182 25.6941
rfemur 0.42338 0.773511 25.8378
rtibia 27.6251
rfoot -10.6948 -17.6051
rtoes -6.42128
lfemur 1.37792 2.39081 -13.066
ltibia 22.5692
lfoot -8.3191 -7.39606
ltoes -19.7923
